<?xml version="1.0" standalone="no"?>
<!DOCTYPE svg PUBLIC "-//W3C//DTD SVG 20010904//EN"
 "http://www.w3.org/TR/2001/REC-SVG-20010904/DTD/svg10.dtd">
<svg version="1.0" xmlns="http://www.w3.org/2000/svg"
 width="80" height="80" viewBox="0 0 800.000000 600.000000"
 preserveAspectRatio="xMidYMid meet">

<g transform="translate(0.000000,600.000000) scale(0.100000,-0.100000)"
 stroke="none">
<path d="M3962 5668 l3 -333 35 0 35 0 3 333 2 332 -40 0 -40 0 2 -332z"/>
<path d="M2529 5612 l-26 -17 159 -285 c88 -157 162 -287 164 -289 2 -2 17 5
33 15 l29 19 -161 288 c-89 158 -164 287 -167 287 -3 0 -17 -8 -31 -18z"/>
<path d="M5381 5285 c-94 -151 -171 -279 -171 -283 0 -5 12 -14 27 -21 21 -10
29 -9 38 1 7 7 85 132 175 277 l164 264 -23 18 c-13 11 -27 19 -31 19 -5 0
-85 -124 -179 -275z"/>
<path d="M1455 4584 c-9 -14 -13 -30 -8 -34 15 -14 541 -340 548 -340 10 0 34
32 35 46 0 10 -539 354 -553 354 -3 0 -12 -12 -22 -26z"/>
<path d="M6305 4333 c-154 -85 -282 -157 -284 -159 -2 -2 5 -17 15 -33 l19
-30 283 158 c155 86 285 160 288 164 7 7 -22 57 -34 57 -4 0 -133 -71 -287
-157z"/>
<path d="M4794 3504 c-203 -209 -280 -282 -282 -268 -1 10 6 120 17 244 14
172 16 231 7 250 l-11 25 -201 3 c-173 2 -203 0 -214 -13 -25 -31 -73 -834
-95 -1597 -6 -214 -6 -217 16 -239 21 -21 27 -22 142 -15 66 3 152 6 192 6
118 0 109 -26 115 361 l5 333 71 -89 c94 -118 168 -224 299 -428 115 -179 133
-196 178 -160 12 10 85 72 160 138 102 89 137 125 137 143 0 14 -90 150 -231
348 -127 178 -229 330 -226 337 3 6 116 139 251 295 135 155 249 290 255 299
6 12 5 25 -4 43 -23 43 -260 270 -282 270 -14 0 -114 -96 -299 -286z m386 22
c0 -3 -4 -8 -10 -11 -5 -3 -10 -1 -10 4 0 6 5 11 10 11 6 0 10 -2 10 -4z m-40
-95 c0 -6 -5 -13 -10 -16 -15 -9 -43 3 -35 15 8 13 45 13 45 1z m-980 -15 c0
-3 -4 -8 -10 -11 -5 -3 -10 -1 -10 4 0 6 5 11 10 11 6 0 10 -2 10 -4z m1015
-96 c3 -5 -3 -10 -15 -10 -12 0 -18 5 -15 10 3 6 10 10 15 10 5 0 12 -4 15
-10z m-425 -90 c0 -5 -4 -10 -10 -10 -5 0 -10 5 -10 10 0 6 5 10 10 10 6 0 10
-4 10 -10z m130 -394 c0 -3 -4 -8 -10 -11 -5 -3 -10 -1 -10 4 0 6 5 11 10 11
6 0 10 -2 10 -4z m-512 -163 c-4 -22 -58 -31 -58 -10 0 20 10 27 37 27 18 0
24 -5 21 -17z m472 -83 c0 -5 -5 -10 -11 -10 -5 0 -7 5 -4 10 3 6 8 10 11 10
2 0 4 -4 4 -10z m135 -61 c10 -15 -1 -23 -20 -15 -9 3 -13 10 -10 16 8 13 22
13 30 -1z m-645 -99 c0 -5 -4 -10 -10 -10 -5 0 -10 5 -10 10 0 6 5 10 10 10 6
0 10 -4 10 -10z m720 -50 c0 -5 -5 -10 -11 -10 -5 0 -7 5 -4 10 3 6 8 10 11
10 2 0 4 -4 4 -10z m30 -10 c0 -5 -5 -10 -11 -10 -5 0 -7 5 -4 10 3 6 8 10 11
10 2 0 4 -4 4 -10z m-90 -40 c0 -5 -5 -10 -11 -10 -5 0 -7 5 -4 10 3 6 8 10
11 10 2 0 4 -4 4 -10z"/>
<path d="M3235 3725 c-55 -7 -192 -23 -304 -36 -143 -16 -209 -27 -222 -38
-17 -15 -25 -89 -84 -816 -35 -440 -65 -824 -66 -854 -2 -46 1 -57 21 -73 23
-19 41 -19 415 -16 430 5 466 9 595 70 184 88 302 329 272 556 -14 106 -47
177 -113 247 l-51 54 66 73 c108 118 156 243 156 408 -1 134 -32 220 -111 301
-55 56 -164 113 -248 129 -70 13 -200 11 -326 -5z m85 -215 c0 -5 -7 -10 -15
-10 -8 0 -15 5 -15 10 0 6 7 10 15 10 8 0 15 -4 15 -10z m0 -91 c0 -6 -4 -7
-10 -4 -5 3 -10 11 -10 16 0 6 5 7 10 4 6 -3 10 -11 10 -16z m50 -134 c27 -14
30 -21 30 -61 0 -58 -19 -103 -58 -136 -30 -25 -142 -68 -229 -87 -40 -8 -43
-7 -43 12 0 33 22 252 26 256 4 5 172 29 212 30 18 1 46 -6 62 -14z m-320
-150 c-8 -9 -8 -15 0 -20 6 -3 8 -11 4 -16 -11 -18 -24 2 -24 38 0 30 2 34 15
23 11 -9 12 -16 5 -25z m740 -65 c0 -5 -4 -10 -10 -10 -5 0 -10 5 -10 10 0 6
5 10 10 10 6 0 10 -4 10 -10z m-745 -20 c3 -5 -1 -10 -10 -10 -9 0 -13 5 -10
10 3 6 8 10 10 10 2 0 7 -4 10 -10z m385 -10 c0 -5 -4 -10 -10 -10 -5 0 -10 5
-10 10 0 6 5 10 10 10 6 0 10 -4 10 -10z m-393 -16 c-3 -3 -12 -4 -19 -1 -8 3
-5 6 6 6 11 1 17 -2 13 -5z m330 0 c-3 -3 -12 -4 -19 -1 -8 3 -5 6 6 6 11 1
17 -2 13 -5z m-457 -34 c0 -5 -5 -10 -11 -10 -5 0 -7 5 -4 10 3 6 8 10 11 10
2 0 4 -4 4 -10z m400 -5 c0 -8 -4 -15 -10 -15 -5 0 -7 7 -4 15 4 8 8 15 10 15
2 0 4 -7 4 -15z m143 -16 c-17 -17 -37 -1 -22 17 8 10 15 12 23 4 7 -7 7 -13
-1 -21z m-583 1 c0 -5 -4 -10 -10 -10 -5 0 -10 5 -10 10 0 6 5 10 10 10 6 0
10 -4 10 -10z m837 -6 c-3 -3 -12 -4 -19 -1 -8 3 -5 6 6 6 11 1 17 -2 13 -5z
m-292 -44 c3 -5 1 -10 -4 -10 -6 0 -11 5 -11 10 0 6 2 10 4 10 3 0 8 -4 11
-10z m-115 -80 c0 -5 -4 -10 -10 -10 -5 0 -10 5 -10 10 0 6 5 10 10 10 6 0 10
-4 10 -10z m21 -249 c36 -36 37 -70 7 -131 -36 -71 -125 -121 -256 -144 l-33
-6 7 133 c3 72 9 134 11 137 9 10 148 38 191 39 35 1 49 -4 73 -28z m-491
-108 c0 -10 -5 -25 -10 -33 -7 -11 -10 -7 -10 18 0 17 5 32 10 32 6 0 10 -8
10 -17z m-2 -171 c1 -41 -12 -71 -25 -58 -4 5 -3 11 4 13 9 3 9 12 1 35 -8 24
-8 32 3 39 8 5 15 9 15 9 1 0 2 -17 2 -38z m-8 -92 c0 -5 -2 -10 -4 -10 -3 0
-8 5 -11 10 -3 6 -1 10 4 10 6 0 11 -4 11 -10z m150 -90 l0 -90 -26 0 c-21 0
-25 3 -19 18 4 9 11 40 16 67 21 123 29 125 29 5z m-68 -95 c-4 -26 -22 -45
-22 -25 0 12 18 50 24 50 2 0 1 -11 -2 -25z"/>
<path d="M1007 3033 c-4 -3 -7 -21 -7 -40 l0 -33 333 2 332 3 0 35 0 35 -326
3 c-179 1 -328 -1 -332 -5z"/>
<path d="M6334 3026 c-3 -8 -4 -25 -2 -38 l3 -23 333 -3 332 -2 0 40 0 40
-330 0 c-277 0 -332 -2 -336 -14z"/>
<path d="M1660 1729 c-157 -88 -285 -163 -285 -167 1 -4 7 -19 14 -33 l13 -27
287 160 c157 88 288 162 290 164 2 2 -5 16 -15 33 l-19 29 -285 -159z"/>
<path d="M5978 1762 l-16 -27 126 -79 c70 -44 196 -122 281 -174 l153 -96 19
25 c10 13 19 27 19 30 0 8 -544 349 -557 349 -5 0 -16 -12 -25 -28z"/>
<path d="M2561 758 l-174 -281 24 -18 c13 -10 27 -19 31 -19 8 0 348 542 348
556 0 5 -12 17 -27 26 l-28 16 -174 -280z"/>
<path d="M5138 962 l-27 -18 158 -282 c87 -155 160 -284 164 -288 3 -3 19 2
35 11 l29 17 -161 289 c-89 159 -163 289 -166 289 -3 0 -17 -8 -32 -18z"/>
<path d="M3967 664 c-4 -4 -7 -155 -7 -336 l0 -328 40 0 40 0 -2 332 -3 333
-30 3 c-17 2 -34 0 -38 -4z"/>
</g>
</svg>
